<?xml version="1.0" encoding="UTF-8" standalone="no"?>
<svg
   xmlns:dc="http://purl.org/dc/elements/1.1/"
   xmlns:cc="http://creativecommons.org/ns#"
   xmlns:rdf="http://www.w3.org/1999/02/22-rdf-syntax-ns#"
   xmlns:svg="http://www.w3.org/2000/svg"
   xmlns="http://www.w3.org/2000/svg"
   xmlns:sodipodi="http://sodipodi.sourceforge.net/DTD/sodipodi-0.dtd"
   xmlns:inkscape="http://www.inkscape.org/namespaces/inkscape"
   width="1500"
   height="1200"
   viewBox="0 0 396.875 317.5"
   version="1.1"
   id="svg8"
   inkscape:version="1.0.2 (e86c870879, 2021-01-15)"
   sodipodi:docname="buffalo.svg"
   inkscape:export-filename="C:\Users\Henry\Documents\buffalo.png"
   inkscape:export-xdpi="100"
   inkscape:export-ydpi="100">
  <defs
     id="defs2" />
  <sodipodi:namedview
     id="base"
     pagecolor="#ffffff"
     bordercolor="#666666"
     borderopacity="1.0"
     inkscape:pageopacity="0.0"
     inkscape:pageshadow="2"
     inkscape:zoom="0.35599999"
     inkscape:cx="527.71795"
     inkscape:cy="610.8765"
     inkscape:document-units="px"
     inkscape:current-layer="g940"
     inkscape:document-rotation="0"
     showgrid="false"
     units="px"
     inkscape:snap-object-midpoints="true"
     inkscape:snap-center="false"
     inkscape:window-width="1737"
     inkscape:window-height="1237"
     inkscape:window-x="215"
     inkscape:window-y="0"
     inkscape:window-maximized="0" />
  <metadata
     id="metadata5">
    <rdf:RDF>
      <cc:Work
         rdf:about="">
        <dc:format>image/svg+xml</dc:format>
        <dc:type
           rdf:resource="http://purl.org/dc/dcmitype/StillImage" />
        <dc:title />
      </cc:Work>
    </rdf:RDF>
  </metadata>
  <g
     inkscape:label="Layer 1"
     inkscape:groupmode="layer"
     id="layer1">
    <g
       id="g902"
       transform="matrix(2.745901,0,0,2.745901,-438.86427,-306.00027)">
      <g
         id="g923"
         transform="translate(1.9826871e-8,10.672557)">
        <g
           id="g915"
           transform="translate(-2.3381209)" />
        <g
           id="g933"
           transform="matrix(1.213038,0,0,1.2134421,-49.278099,-37.039328)"
           style="stroke-width:0.824239">
          <g
             id="g940"
             transform="translate(-0.13688762,-11.823033)">
            <g
               id="g45"
               transform="translate(0.0542918,0.21925641)">
              <path
                 style="mix-blend-mode:normal;fill:#000000;fill-opacity:1;fill-rule:nonzero;stroke:#ffffff;stroke-width:0.317681;stroke-linecap:butt;stroke-linejoin:miter;stroke-miterlimit:4;stroke-dasharray:none;stroke-opacity:1"
                 d="m 200.45214,190.83044 c 0,0 -8.55262,-1.46998 -8.15172,-6.01356 0.40091,-4.54359 -2.46935,-1.3437 -4.67721,-2.00453 -6.45927,-1.93331 -10.42351,-10.55714 -9.88898,-17.63978 0.53454,-7.08265 1.10861,-13.59132 9.39397,-17.19946 8.28535,-3.60814 -2.6727,-6.81537 -2.6727,-6.81537 0,0 6.64221,0.36147 9.18127,2.49963 2.53906,2.13815 2.93997,4.00904 0.80181,6.81537 -2.13816,2.80633 -0.9607,4.12383 0.26727,5.47903 1.75296,1.93457 4.67722,2.40542 7.48354,-0.53454 2.80633,-2.93997 0.75814,-10.39924 -2.27179,-12.96257 -3.02993,-2.56333 -6.48449,-5.53415 -15.42447,-2.99919 -8.93998,2.53496 -1.97272,-1.39318 1.37666,-2.48635 3.34938,-1.09317 7.98475,-1.18117 14.64658,1.13393 6.66183,2.3151 5.29166,3.16555 9.73288,3.07106 4.44122,-0.0945 9.68564,-2.5041 9.68564,-2.5041 0,0 6.00037,-3.26004 11.67002,1.27567 5.66964,4.53572 13.32366,5.19718 13.32366,5.19718 0,0 5.05147,0.63042 12.56771,5.10267 7.18153,5.19718 16.81993,9.92188 19.37128,12.37872 2.55133,2.45685 8.1265,7.18155 12.7567,16.15849 4.63021,8.97693 -3.37272,11.35058 -3.02381,9.82738 0.19325,-0.84364 1.13054,-3.01476 0.93842,-3.44459 -0.063,-0.14089 -0.75711,0.37951 -1.11497,1.23666 -0.40556,0.9714 -1.2286,1.47199 -1.37154,1.48743 -0.68198,0.0736 -0.12074,-3.57824 0.37872,-4.82607 0.28303,-0.7071 0.85613,-2.82676 0.60229,-3.99733 -0.48764,-2.24876 -5.95312,-9.26042 -7.55952,-9.44941 -1.60639,-0.18899 -1.41739,4.44122 -1.32291,5.76414 0.0945,1.32292 -0.37799,7.65402 1.32291,11.90625 1.70091,4.25223 2.74032,4.34673 0.56698,11.71726 -2.17337,7.37054 -2.92933,10.01637 -2.92933,10.01637 l -11.33928,-0.0945 c 0,0 0.47247,-3.87426 4.63021,-4.06325 4.15774,-0.18899 2.92931,-8.40997 2.07886,-10.01637 -0.85045,-1.6064 -8.99991,-6.68598 -10.77232,-7.9375 -1.75016,-1.23581 -5.33495,-1.32758 -13.13467,0.37798 -7.54602,1.65009 -10.58333,2.45685 -13.60714,3.68527 -3.02381,1.22842 -5.19717,8.50446 -5.19717,8.50446 0,0 -1.51191,4.06325 -1.51191,7.08706 0,3.02381 -0.18899,2.74032 -0.18899,2.74032 l -11.24479,0.0945 c 0,0 0,-1.7009 1.22842,-3.2128 1.22843,-1.51191 -3.49627,-8.50446 -6.14211,-13.70164 -2.64583,-5.19717 -2.07887,-5.19717 -2.36235,-6.61458 -0.28348,-1.41741 -0.56696,-3.87426 -2.26786,-3.59077 -1.70089,0.28348 0.28349,5.38616 -1.32291,7.08705 -1.6064,1.70089 -4.50545,1.46437 -4.50545,1.46437 z"
                 id="path60"
                 transform="translate(-2.33812)"
                 sodipodi:nodetypes="csscsccssszzzscccccssssssssssscccssssscsccssssscc" />
              <path
                 style="fill:#000000;fill-opacity:1;stroke:#ffffff;stroke-width:0.218087;stroke-linecap:butt;stroke-linejoin:miter;stroke-miterlimit:4;stroke-dasharray:none;stroke-opacity:1"
                 d="m 197.91778,209.1849 6.99256,0.0472 c 0,0 0.51972,-5.90588 4.53571,-8.17373 4.016,-2.26786 -0.47247,-7.60677 -2.64583,-7.84301 -2.17336,-0.23624 -4.57108,4.96105 -5.41695,7.08098 -0.88335,2.21386 -1.38775,3.12798 -1.85909,5.53397 -0.34217,1.74663 -1.11686,1.23694 -1.5119,2.4096 -0.40249,1.19476 -0.0945,0.94494 -0.0945,0.94494 z"
                 id="path70"
                 transform="translate(-2.33812)"
                 sodipodi:nodetypes="ccssssscc" />
              <path
                 style="fill:#000000;fill-opacity:1;stroke:#ffffff;stroke-width:0.317681;stroke-linecap:butt;stroke-linejoin:miter;stroke-miterlimit:4;stroke-dasharray:none;stroke-opacity:1"
                 d="m 244.38394,208.89398 9.30766,-0.0473 c 0,0 -0.42522,-2.12612 2.92932,-6.09487 3.35453,-3.96874 6.56733,-5.24441 6.94531,-6.75632 0.37797,-1.5119 -0.33073,-2.07887 -2.26786,-3.73251 -1.93713,-1.65365 -2.36235,-2.78758 -4.20498,-3.40179 -1.84264,-0.61421 -6.66006,12.93675 -6.94219,14.16017 -0.28213,1.22342 -0.58331,2.43604 -1.62095,2.73875 -0.99718,0.29091 -1.14946,-0.35006 -3.15413,0.77147 -1.0225,0.57205 -0.99218,2.36235 -0.99218,2.36235 z"
                 id="path72"
                 transform="translate(-2.33812)"
                 sodipodi:nodetypes="ccsssszsscc" />
              <text
                 xml:space="preserve"
                 style="font-style:normal;font-variant:normal;font-weight:normal;font-stretch:normal;font-size:14.0482px;line-height:1.25;font-family:Georgia;-inkscape-font-specification:Georgia;fill:#ffffff;fill-opacity:1;stroke:none;stroke-width:0.289476"
                 x="213.94873"
                 y="172.88243"
                 id="text910"><tspan
                   sodipodi:role="line"
                   id="tspan908"
                   x="213.94873"
                   y="172.88243"
                   style="font-style:normal;font-variant:normal;font-weight:normal;font-stretch:normal;font-family:Georgia;-inkscape-font-specification:Georgia;fill:#ffffff;fill-opacity:1;stroke-width:0.289476">CUSF</tspan></text>
            </g>
          </g>
        </g>
      </g>
    </g>
  </g>
</svg>
